# Blender v2.79 (sub 0) OBJ File: 'Low Poly Scene.blend'
# www.blender.org
mtllib LPRock1.mtl
o Stone_Variant_1.001_Icosphere.017
v -0.000000 0.000000 0.000000
v 0.146522 0.020311 0.126987
v -0.046036 0.013698 0.188664
v -0.172109 0.021026 0.007361
v -0.050152 0.024488 -0.202269
v 0.145781 0.018524 -0.107512
v 0.061824 0.136148 0.183321
v -0.130786 0.147012 0.119568
v -0.136864 0.177577 -0.128516
v 0.052283 0.156952 -0.230475
v 0.183902 0.160441 0.018745
v 0.004756 0.205842 -0.030928
v -0.026764 0.002221 0.117684
v 0.087117 0.006227 0.079798
v 0.058216 0.015344 0.182374
v 0.170084 0.019179 0.015385
v 0.084906 0.010643 -0.069450
v -0.102573 0.009898 0.000786
v -0.128582 0.012488 0.115065
v -0.031535 0.017537 -0.129590
v -0.133579 0.026709 -0.115678
v 0.056476 0.017922 -0.187654
v 0.193338 0.099714 0.083221
v 0.192278 0.103225 -0.052997
v 0.011686 0.087722 0.220102
v 0.119380 0.087680 0.175656
v -0.179172 0.095955 0.073134
v -0.103936 0.086519 0.178257
v -0.110140 0.111880 -0.199439
v -0.182931 0.110408 -0.070260
v 0.122712 0.100233 -0.184735
v 0.008307 0.101398 -0.244290
v 0.136034 0.147914 0.105132
v -0.043600 0.136124 0.165754
v -0.159724 0.174143 0.002465
v -0.054597 0.175439 -0.227675
v 0.143083 0.176178 -0.104180
v 0.043346 0.173704 0.109546
v 0.113744 0.186359 -0.004588
v -0.070053 0.188764 0.071546
v -0.087653 0.220326 -0.103997
v 0.029482 0.216404 -0.149589
vn 0.0448 -0.9986 0.0290
vn 0.1922 -0.9800 0.0505
vn -0.0961 -0.9954 -0.0031
vn -0.0963 -0.9892 -0.1104
vn 0.0121 -0.9905 -0.1370
vn 0.8880 -0.4179 0.1917
vn 0.0611 -0.4302 0.9007
vn -0.8724 -0.3663 0.3236
vn -0.6557 -0.4300 -0.6207
vn 0.5960 -0.4562 -0.6608
vn 0.7826 -0.1253 0.6098
vn -0.3360 -0.1339 0.9323
vn -0.9941 -0.1071 0.0153
vn -0.3624 -0.2194 -0.9058
vn 0.8708 -0.1848 -0.4556
vn 0.2644 0.8846 0.3841
vn -0.1688 0.8395 0.5165
vn -0.6275 0.7735 -0.0892
vn 0.1264 0.8160 -0.5641
vn 0.3449 0.9386 0.0056
vn 0.1470 0.9821 0.1181
vn 0.3332 0.9429 0.0018
vn 0.4513 0.7750 -0.4424
vn 0.0735 0.9919 0.1036
vn -0.1112 0.9243 -0.3652
vn -0.4734 0.7799 -0.4096
vn 0.0156 0.9844 0.1754
vn -0.3045 0.9317 0.1980
vn -0.3713 0.8802 0.2957
vn 0.0604 0.9765 0.2068
vn -0.0520 0.8655 0.4982
vn -0.0781 0.8804 0.4677
vn 0.1288 0.9738 0.1874
vn 0.2700 0.9245 0.2691
vn 0.2517 0.9282 0.2741
vn 0.8744 0.4240 -0.2361
vn 0.8526 0.2550 -0.4560
vn 0.7068 0.4167 -0.5716
vn 0.0144 0.2306 -0.9730
vn -0.3600 -0.0976 -0.9278
vn -0.7149 0.3578 -0.6008
vn -0.8688 0.4752 -0.1392
vn -0.9565 0.2867 0.0540
vn -0.8151 0.4867 0.3142
vn -0.3231 0.5812 0.7469
vn -0.2894 0.5495 0.7838
vn -0.1211 0.6769 0.7261
vn 0.5555 0.5629 0.6120
vn 0.6429 0.5008 0.5796
vn 0.6686 0.5877 0.4557
vn 0.4559 -0.1424 -0.8786
vn 0.4349 -0.3201 -0.8417
vn 0.0836 -0.5260 -0.8464
vn -0.8592 0.1711 -0.4822
vn -0.8449 -0.2384 -0.4788
vn -0.8846 -0.3622 -0.2938
vn -0.7849 0.2154 0.5811
vn -0.8042 -0.2077 0.5569
vn -0.6106 -0.3867 0.6911
vn 0.3648 0.2934 0.8836
vn 0.3712 -0.2303 0.8996
vn 0.5103 -0.3589 0.7815
vn 0.9887 0.1496 -0.0038
vn 0.9638 -0.2662 -0.0144
vn 0.9064 -0.3835 -0.1772
vn 0.0786 -0.9937 -0.0801
vn -0.0312 -0.9981 -0.0539
vn -0.0500 -0.9953 -0.0824
vn -0.0987 -0.9927 -0.0696
vn -0.1044 -0.9879 -0.1148
vn -0.1662 -0.9813 -0.0974
vn -0.1593 -0.9871 -0.0139
vn -0.1003 -0.9950 -0.0003
vn -0.1028 -0.9860 0.1315
vn 0.1173 -0.9929 -0.0179
vn 0.1304 -0.9910 -0.0313
vn 0.0994 -0.9946 -0.0309
vn 0.0256 -0.9857 0.1663
vn 0.0708 -0.9916 0.1081
vn 0.1337 -0.9831 0.1251
usemtl Stone
s off
f 1//1 14//1 13//1
f 2//2 14//2 16//2
f 1//3 13//3 18//3
f 1//4 18//4 20//4
f 1//5 20//5 17//5
f 2//6 16//6 23//6
f 3//7 15//7 25//7
f 4//8 19//8 27//8
f 5//9 21//9 29//9
f 6//10 22//10 31//10
f 2//11 23//11 26//11
f 3//12 25//12 28//12
f 4//13 27//13 30//13
f 5//14 29//14 32//14
f 6//15 31//15 24//15
f 7//16 33//16 38//16
f 8//17 34//17 40//17
f 9//18 35//18 41//18
f 10//19 36//19 42//19
f 11//20 37//20 39//20
f 39//21 42//21 12//21
f 39//22 37//22 42//22
f 37//23 10//23 42//23
f 42//24 41//24 12//24
f 42//25 36//25 41//25
f 36//26 9//26 41//26
f 41//27 40//27 12//27
f 41//28 35//28 40//28
f 35//29 8//29 40//29
f 40//30 38//30 12//30
f 40//31 34//31 38//31
f 34//32 7//32 38//32
f 38//33 39//33 12//33
f 38//34 33//34 39//34
f 33//35 11//35 39//35
f 24//36 37//36 11//36
f 24//37 31//37 37//37
f 31//38 10//38 37//38
f 32//39 36//39 10//39
f 32//40 29//40 36//40
f 29//41 9//41 36//41
f 30//42 35//42 9//42
f 30//43 27//43 35//43
f 27//44 8//44 35//44
f 28//45 34//45 8//45
f 28//46 25//46 34//46
f 25//47 7//47 34//47
f 26//48 33//48 7//48
f 26//49 23//49 33//49
f 23//50 11//50 33//50
f 31//51 32//51 10//51
f 31//52 22//52 32//52
f 22//53 5//53 32//53
f 29//54 30//54 9//54
f 29//55 21//55 30//55
f 21//56 4//56 30//56
f 27//57 28//57 8//57
f 27//58 19//58 28//58
f 19//59 3//59 28//59
f 25//60 26//60 7//60
f 25//61 15//61 26//61
f 15//62 2//62 26//62
f 23//63 24//63 11//63
f 23//64 16//64 24//64
f 16//65 6//65 24//65
f 17//66 22//66 6//66
f 17//67 20//67 22//67
f 20//68 5//68 22//68
f 20//69 21//69 5//69
f 20//70 18//70 21//70
f 18//71 4//71 21//71
f 18//72 19//72 4//72
f 18//73 13//73 19//73
f 13//74 3//74 19//74
f 16//75 17//75 6//75
f 16//76 14//76 17//76
f 14//77 1//77 17//77
f 13//78 15//78 3//78
f 13//79 14//79 15//79
f 14//80 2//80 15//80
