# Blender v2.79 (sub 0) OBJ File: 'Low Poly Scene.blend'
# www.blender.org
mtllib LPRock2.mtl
o Stone_Variant_2.001_Icosphere.016
v 0.000000 0.000000 0.000000
v 0.142103 0.020648 0.145079
v -0.048814 0.001926 0.200906
v -0.178548 0.025256 0.009435
v -0.032913 0.018171 -0.243157
v 0.140178 0.021841 -0.106667
v 0.077654 0.075346 0.226446
v -0.122611 0.169833 0.120456
v -0.133296 0.238235 -0.101650
v 0.044324 0.178030 -0.256591
v 0.177884 0.165535 0.039158
v 0.012020 0.260080 -0.026168
v -0.030929 -0.001861 0.136471
v 0.082207 0.008537 0.102748
v 0.058926 -0.001341 0.199451
v 0.164184 0.022520 0.022945
v 0.086532 0.009338 -0.078385
v -0.104450 0.011690 -0.003495
v -0.134409 0.014441 0.119344
v -0.005878 0.004838 -0.178315
v -0.126389 0.024571 -0.131711
v 0.065758 0.014369 -0.214936
v 0.188599 0.101872 0.108778
v 0.185653 0.108054 -0.049902
v 0.021709 0.038469 0.242437
v 0.126674 0.054966 0.204937
v -0.182681 0.107787 0.071647
v -0.102643 0.074279 0.192539
v -0.113471 0.125014 -0.209737
v -0.192542 0.124043 -0.064385
v 0.116424 0.109997 -0.196541
v 0.008683 0.115805 -0.281834
v 0.139558 0.128640 0.153974
v -0.030283 0.095454 0.201182
v -0.146266 0.238295 -0.000205
v -0.065157 0.198636 -0.238187
v 0.132548 0.194289 -0.116043
v 0.057306 0.133573 0.170051
v 0.109750 0.205076 0.015362
v -0.049112 0.245995 0.078690
v -0.102141 0.281332 -0.085525
v 0.008205 0.278396 -0.165313
vn 0.0938 -0.9956 0.0077
vn 0.1856 -0.9825 0.0185
vn -0.1099 -0.9932 -0.0384
vn -0.1104 -0.9936 -0.0233
vn 0.0806 -0.9963 -0.0297
vn 0.8856 -0.4384 0.1534
vn -0.0133 -0.7394 0.6732
vn -0.8965 -0.2944 0.3311
vn -0.7242 -0.3625 -0.5866
vn 0.7912 -0.3188 -0.5218
vn 0.8606 -0.3133 0.4014
vn -0.4150 -0.2063 0.8861
vn -0.9936 -0.0955 0.0606
vn -0.5113 -0.1193 -0.8511
vn 0.8868 -0.1904 -0.4212
vn 0.1751 0.7159 0.6759
vn -0.1882 0.6056 0.7732
vn -0.7879 0.6074 -0.1011
vn 0.0024 0.6733 -0.7394
vn 0.4979 0.8671 0.0152
vn 0.4539 0.8850 0.1041
vn 0.5526 0.8330 0.0275
vn 0.6153 0.6400 -0.4603
vn 0.1176 0.9850 0.1264
vn -0.3481 0.7864 -0.5103
vn -0.6116 0.6241 -0.4862
vn 0.0874 0.9793 0.1825
vn -0.3111 0.9035 0.2949
vn -0.4668 0.7268 0.5039
vn 0.4893 0.7801 0.3900
vn 0.0010 0.6312 0.7756
vn -0.0416 0.6876 0.7249
vn 0.2680 0.8367 0.4776
vn 0.1416 0.8794 0.4545
vn 0.3558 0.8486 0.3915
vn 0.8939 0.4082 -0.1855
vn 0.8820 0.2261 -0.4134
vn 0.7729 0.3547 -0.5262
vn -0.0752 0.4115 -0.9083
vn -0.5082 0.0007 -0.8612
vn -0.8012 0.3338 -0.4967
vn -0.8966 0.4277 -0.1149
vn -0.9410 0.3212 0.1066
vn -0.7950 0.4474 0.4097
vn -0.2554 0.5477 0.7967
vn -0.2290 0.4251 0.8757
vn -0.1013 0.5211 0.8475
vn 0.5065 0.4289 0.7480
vn 0.7298 0.2980 0.6153
vn 0.7012 0.5766 0.4193
vn 0.6191 -0.0363 -0.7845
vn 0.6058 -0.1715 -0.7769
vn 0.2309 -0.4418 -0.8669
vn -0.8420 0.2880 -0.4561
vn -0.8496 -0.2511 -0.4639
vn -0.8743 -0.3639 -0.3213
vn -0.7629 0.2802 0.5827
vn -0.8426 -0.1755 0.5092
vn -0.6582 -0.4172 0.6267
vn 0.3518 -0.1319 0.9267
vn 0.3594 -0.5087 0.7823
vn 0.5199 -0.6764 0.5218
vn 0.9882 0.1528 -0.0124
vn 0.9636 -0.2659 -0.0283
vn 0.9132 -0.3716 -0.1672
vn 0.1936 -0.9789 -0.0655
vn 0.1052 -0.9931 -0.0526
vn 0.0225 -0.9774 -0.2104
vn -0.2037 -0.9723 -0.1150
vn -0.1863 -0.9802 -0.0666
vn -0.1908 -0.9794 -0.0658
vn -0.1839 -0.9827 -0.0228
vn -0.1531 -0.9881 -0.0152
vn -0.1579 -0.9874 0.0142
vn 0.2099 -0.9771 -0.0338
vn 0.1678 -0.9858 -0.0004
vn 0.1056 -0.9944 -0.0019
vn -0.0296 -0.9983 0.0505
vn 0.0658 -0.9941 -0.0857
vn 0.2281 -0.9726 -0.0444
usemtl Stone
s off
f 1//1 14//1 13//1
f 2//2 14//2 16//2
f 1//3 13//3 18//3
f 1//4 18//4 20//4
f 1//5 20//5 17//5
f 2//6 16//6 23//6
f 3//7 15//7 25//7
f 4//8 19//8 27//8
f 5//9 21//9 29//9
f 6//10 22//10 31//10
f 2//11 23//11 26//11
f 3//12 25//12 28//12
f 4//13 27//13 30//13
f 5//14 29//14 32//14
f 6//15 31//15 24//15
f 7//16 33//16 38//16
f 8//17 34//17 40//17
f 9//18 35//18 41//18
f 10//19 36//19 42//19
f 11//20 37//20 39//20
f 39//21 42//21 12//21
f 39//22 37//22 42//22
f 37//23 10//23 42//23
f 42//24 41//24 12//24
f 42//25 36//25 41//25
f 36//26 9//26 41//26
f 41//27 40//27 12//27
f 41//28 35//28 40//28
f 35//29 8//29 40//29
f 40//30 38//30 12//30
f 40//31 34//31 38//31
f 34//32 7//32 38//32
f 38//33 39//33 12//33
f 38//34 33//34 39//34
f 33//35 11//35 39//35
f 24//36 37//36 11//36
f 24//37 31//37 37//37
f 31//38 10//38 37//38
f 32//39 36//39 10//39
f 32//40 29//40 36//40
f 29//41 9//41 36//41
f 30//42 35//42 9//42
f 30//43 27//43 35//43
f 27//44 8//44 35//44
f 28//45 34//45 8//45
f 28//46 25//46 34//46
f 25//47 7//47 34//47
f 26//48 33//48 7//48
f 26//49 23//49 33//49
f 23//50 11//50 33//50
f 31//51 32//51 10//51
f 31//52 22//52 32//52
f 22//53 5//53 32//53
f 29//54 30//54 9//54
f 29//55 21//55 30//55
f 21//56 4//56 30//56
f 27//57 28//57 8//57
f 27//58 19//58 28//58
f 19//59 3//59 28//59
f 25//60 26//60 7//60
f 25//61 15//61 26//61
f 15//62 2//62 26//62
f 23//63 24//63 11//63
f 23//64 16//64 24//64
f 16//65 6//65 24//65
f 17//66 22//66 6//66
f 17//67 20//67 22//67
f 20//68 5//68 22//68
f 20//69 21//69 5//69
f 20//70 18//70 21//70
f 18//71 4//71 21//71
f 18//72 19//72 4//72
f 18//73 13//73 19//73
f 13//74 3//74 19//74
f 16//75 17//75 6//75
f 16//76 14//76 17//76
f 14//77 1//77 17//77
f 13//78 15//78 3//78
f 13//79 14//79 15//79
f 14//80 2//80 15//80
