# Blender v2.79 (sub 0) OBJ File: 'hause.blend'
# www.blender.org
mtllib hause.mtl
o Cube_Cube.001
v -1.326508 -0.016574 1.877710
v -1.326508 2.321797 1.877710
v -1.326508 -0.016574 -3.020744
v -1.326508 2.321797 -3.020744
v 0.673492 -0.016574 1.877710
v 0.673492 2.321797 1.877710
v 0.673492 -0.016574 -3.020744
v 0.673492 2.321797 -3.020744
v -1.326508 2.738521 1.877710
v -1.326508 3.050174 -3.020744
v 0.673492 3.050174 -3.020744
v 0.673492 2.738521 1.877710
v 0.673492 2.321797 3.662146
v -1.326508 2.321797 3.662146
v 0.673492 2.524816 3.662146
v -1.326508 2.524816 3.662146
v -1.326508 -0.016574 -0.667775
v -1.326508 2.321797 -0.667775
v 0.673492 -0.016574 -0.667775
v 0.673492 2.321797 -0.667775
v -1.326508 3.059078 -0.667775
v 0.673492 3.059078 -0.667775
v 2.053212 2.321797 -3.020744
v 2.053212 -0.016574 -3.020744
v 2.053212 -0.016574 -0.667775
v 2.053212 3.050174 -3.020744
v 2.053212 2.321797 -0.667775
v 2.053212 3.059078 -0.667775
v -1.326508 4.191586 -0.667775
v -1.326508 3.464989 -3.020744
v 0.673492 3.464989 -3.020744
v 0.673492 4.191586 -0.667775
v 2.053212 4.191586 -0.667775
v 2.053212 3.464989 -3.020744
v 0.673492 2.321797 3.929252
v -1.326508 2.321797 3.929252
v 0.673492 2.524816 3.929252
v -1.326508 2.524816 3.929252
v 0.673492 3.623536 3.662146
v -1.326508 3.623536 3.662146
v 0.673492 3.623536 3.929252
v -1.326508 3.623536 3.929252
v 0.673492 0.211461 3.662146
v -1.326508 0.211461 3.662146
v 0.673492 0.211461 3.929252
v -1.326508 0.211461 3.929252
v 0.673492 3.059078 -0.667775
v 0.673492 2.738521 1.877710
v -1.326508 2.738521 1.877710
v 0.673492 2.524816 3.662146
v -1.326508 2.524816 3.662146
v -1.326508 3.059078 -0.667775
v 0.673492 3.324389 -0.669815
v 0.685881 2.968908 1.887794
v -1.326508 2.966615 1.905730
v 0.685881 2.744467 3.643601
v -1.326508 2.742175 3.661537
v -1.326508 3.324389 -0.669815
v 1.112604 3.059078 -0.667775
v 1.112604 2.738521 1.877710
v 1.112604 2.524816 3.662146
v 1.112604 3.324389 -0.669815
v 1.124993 2.968908 1.887794
v 1.124993 2.744467 3.643601
v -1.326508 4.472499 -0.754521
v -1.326508 3.745903 -3.107490
v 0.673492 3.745903 -3.107490
v 0.673492 4.472499 -0.754521
v 2.053212 4.472499 -0.754521
v 2.053212 3.745903 -3.107490
v 0.673492 4.263635 -0.434454
v 2.053212 4.263635 -0.434454
v 0.673492 4.544549 -0.521200
v -1.326508 4.263635 -0.434454
v 2.053212 4.544549 -0.521200
v -1.326508 4.544549 -0.521200
v 2.347330 3.464989 -3.020744
v 2.347330 4.191586 -0.667775
v 2.347330 3.745903 -3.107490
v 2.347330 4.472499 -0.754521
v 2.347330 4.263635 -0.434454
v 2.347330 4.544549 -0.521200
v -1.326508 3.390574 -3.261725
v 0.673492 3.390574 -3.261725
v 2.053212 3.390574 -3.261725
v -1.326508 3.671488 -3.348471
v 0.673492 3.671488 -3.348471
v 2.053212 3.671488 -3.348471
v 2.347330 3.390574 -3.261725
v 2.347330 3.671488 -3.348471
v 0.673492 2.446154 -3.020744
v 0.673492 2.392945 1.877710
v -1.326508 2.392945 1.877710
v -1.326508 2.446154 -3.020744
v 0.673492 2.356459 3.662146
v -1.326508 2.356459 3.662146
v -1.326508 2.447674 -0.667775
v 0.673492 2.447674 -0.667775
v 2.053212 2.446154 -3.020744
v 2.053212 2.447674 -0.667775
v 0.673492 2.356459 3.929252
v -1.326508 2.356459 3.929252
v 2.253212 2.321797 -3.020744
v 2.253212 2.321797 -0.667775
v 2.253212 2.446154 -3.020744
v 2.253212 2.447674 -0.667775
v 2.053212 2.321797 -0.467775
v 0.673492 2.321797 -0.467775
v 0.673492 2.447674 -0.467775
v 2.053212 2.447674 -0.467775
v 2.253212 2.321797 -0.467775
v 2.253212 2.447674 -0.467775
v -1.326508 2.321797 -3.220744
v 0.673492 2.321797 -3.220744
v -1.326508 2.446154 -3.220744
v 2.053212 2.321797 -3.220744
v 0.673492 2.446154 -3.220744
v 2.053212 2.446154 -3.220744
v 2.253212 2.321797 -3.220744
v 2.253212 2.446154 -3.220744
vn 0.0000 0.9905 0.1376
vn 0.0000 0.9919 0.1268
vn 0.0000 0.9905 0.1377
vn 0.9997 -0.0249 -0.0057
vn 0.9985 -0.0551 -0.0068
vn 0.0000 0.0841 0.9965
vn 0.0000 0.9555 -0.2951
vn 1.0000 0.0000 0.0000
vn 0.0000 0.2951 0.9555
vn 0.0000 -0.2951 -0.9555
vn -1.0000 0.0000 0.0000
vn 0.0000 0.0000 -1.0000
vn 0.0000 0.0000 1.0000
vn 0.0000 -1.0000 0.0000
vn 0.0000 -0.9555 0.2951
vn 0.0000 1.0000 0.0000
vn 0.0000 -0.0077 -1.0000
vn 0.0044 0.0437 0.9990
vn 0.0000 -0.9922 -0.1249
vn 0.0000 -0.9929 -0.1189
vn 0.0000 1.0000 -0.0006
usemtl Roof.001
s off
f 53//1 58//1 55//1 54//1
f 54//2 55//2 57//2 56//2
f 53//3 54//3 63//3 62//3
f 60//4 59//4 62//4 63//4
f 61//5 60//5 63//5 64//5
f 54//2 56//2 64//2 63//2
f 56//6 50//6 61//6 64//6
f 67//7 66//7 65//7 68//7
f 67//7 68//7 69//7 70//7
f 70//7 69//7 80//7 79//7
f 66//7 67//7 87//7 86//7
f 79//8 77//8 89//8 90//8
f 71//9 72//9 75//9 73//9
f 74//9 71//9 73//9 76//9
f 75//9 72//9 81//9 82//9
f 68//7 65//7 76//7 73//7
f 69//7 68//7 73//7 75//7
f 78//8 77//8 79//8 80//8
f 78//8 80//8 82//8 81//8
f 69//7 75//7 82//7 80//7
f 84//10 83//10 86//10 87//10
f 85//10 84//10 87//10 88//10
f 85//10 88//10 90//10 89//10
f 67//7 70//7 88//7 87//7
f 70//7 79//7 90//7 88//7
usemtl Material.001
f 17//11 18//11 4//11 3//11
f 3//12 4//12 8//12 7//12
f 19//8 20//8 6//8 5//8
f 5//13 6//13 2//13 1//13
f 17//14 19//14 5//14 1//14
f 19//14 7//14 24//14 25//14
f 16//13 15//13 50//13 51//13
f 97//11 93//11 9//11 21//11
f 92//8 12//8 15//8 95//8
f 96//11 14//11 36//11 102//11
f 21//13 9//13 49//13 52//13
f 2//14 6//14 13//14 14//14
f 93//11 2//11 14//11 96//11
f 94//11 97//11 21//11 10//11
f 92//8 98//8 22//8 12//8
f 3//14 7//14 19//14 17//14
f 1//11 2//11 18//11 17//11
f 24//8 23//8 27//8 25//8
f 20//13 19//13 25//13 27//13
f 7//12 8//12 23//12 24//12
f 65//11 29//11 74//11 76//11
f 29//15 32//15 71//15 74//15
f 10//11 21//11 29//11 30//11
f 102//13 101//13 37//13 38//13
f 16//11 38//11 42//11 40//11
f 95//8 15//8 37//8 101//8
f 36//11 14//11 44//11 46//11
f 39//16 40//16 42//16 41//16
f 15//12 16//12 40//12 39//12
f 38//13 37//13 41//13 42//13
f 37//8 15//8 39//8 41//8
f 44//14 43//14 45//14 46//14
f 14//12 13//12 43//12 44//12
f 35//13 36//13 46//13 45//13
f 13//8 35//8 45//8 43//8
f 49//11 51//11 57//11 55//11
f 47//17 52//17 58//17 53//17
f 9//13 16//13 51//13 49//13
f 22//13 21//13 52//13 47//13
f 15//13 12//13 48//13 50//13
f 12//13 22//13 47//13 48//13
f 51//18 50//18 56//18 57//18
f 47//17 53//17 62//17 59//17
f 52//11 49//11 55//11 58//11
f 48//19 47//19 59//19 60//19
f 50//20 48//20 60//20 61//20
f 30//11 29//11 65//11 66//11
f 32//15 33//15 72//15 71//15
f 72//15 33//15 78//15 81//15
f 33//15 34//15 77//15 78//15
f 30//11 66//11 86//11 83//11
f 31//15 30//15 83//15 84//15
f 77//15 34//15 85//15 89//15
f 34//15 31//15 84//15 85//15
f 13//8 95//8 101//8 35//8
f 36//13 35//13 101//13 102//13
f 6//8 20//8 98//8 92//8
f 4//11 18//11 97//11 94//11
f 9//11 93//11 96//11 16//11
f 16//11 96//11 102//11 38//11
f 4//11 94//11 115//11 113//11
f 6//8 92//8 95//8 13//8
f 18//11 2//11 93//11 97//11
f 98//11 20//11 108//11 109//11
f 103//14 23//14 116//14 119//14
usemtl Material
f 91//12 94//12 10//12 11//12
f 21//13 22//13 32//13 29//13
f 11//12 10//12 30//12 31//12
f 100//8 99//8 26//8 28//8
f 91//12 11//12 26//12 99//12
f 28//8 26//8 34//8 33//8
f 22//13 28//13 33//13 32//13
f 26//12 11//12 31//12 34//12
f 22//13 98//13 100//13 28//13
usemtl Material.002
f 20//14 27//14 107//14 108//14
f 91//16 99//16 118//16 117//16
f 99//16 105//16 120//16 118//16
f 104//8 103//8 105//8 106//8
f 27//14 104//14 111//14 107//14
f 99//21 100//21 106//21 105//21
f 27//14 23//14 103//14 104//14
f 109//13 108//13 107//13 110//13
f 110//13 107//13 111//13 112//13
f 104//8 106//8 112//8 111//8
f 106//16 100//16 110//16 112//16
f 100//16 98//16 109//16 110//16
f 114//12 117//12 118//12 116//12
f 116//12 118//12 120//12 119//12
f 114//12 113//12 115//12 117//12
f 23//14 8//14 114//14 116//14
f 8//14 4//14 113//14 114//14
f 105//8 103//8 119//8 120//8
f 94//16 91//16 117//16 115//16
