# Blender v2.79 (sub 0) OBJ File: ''
# www.blender.org
mtllib Bullet1Full.mtl
o Cylinder.001
v 0.011799 0.093228 0.025661
v 0.000068 0.049449 0.118634
v 0.032638 0.081196 0.025661
v 0.000590 0.049148 0.118634
v 0.044670 0.060357 0.025661
v 0.000891 0.048626 0.118634
v 0.044670 0.036294 0.025661
v 0.000891 0.048024 0.118634
v 0.032638 0.015454 0.025661
v 0.000590 0.047503 0.118634
v 0.011799 0.003423 0.025661
v 0.000068 0.047202 0.118634
v -0.012264 0.003423 0.025661
v -0.000534 0.047202 0.118634
v -0.033104 0.015454 0.025661
v -0.001055 0.047503 0.118634
v -0.045135 0.036293 0.025661
v -0.001356 0.048024 0.118634
v -0.045135 0.060357 0.025661
v -0.001356 0.048626 0.118634
v -0.033104 0.081196 0.025661
v -0.001055 0.049148 0.118634
v -0.012264 0.093228 0.025661
v -0.000534 0.049449 0.118634
v 0.011799 0.093228 0.037283
v 0.011799 0.093228 0.048904
v 0.011120 0.090693 0.063806
v 0.009010 0.082820 0.082923
v 0.006149 0.072143 0.100140
v 0.003238 0.061279 0.111929
v 0.000978 0.052842 0.117465
v 0.003074 0.051632 0.117465
v 0.009250 0.057808 0.111929
v 0.017203 0.065761 0.100140
v 0.025019 0.073577 0.082923
v 0.030783 0.079341 0.063806
v 0.032638 0.081196 0.048904
v 0.032638 0.081196 0.037283
v 0.004284 0.049535 0.117465
v 0.012721 0.051796 0.111929
v 0.023585 0.054707 0.100140
v 0.034262 0.057568 0.082923
v 0.042135 0.059678 0.063806
v 0.044670 0.060357 0.048904
v 0.044670 0.060357 0.037283
v 0.004284 0.047115 0.117465
v 0.012721 0.044854 0.111929
v 0.023585 0.041943 0.100140
v 0.034262 0.039082 0.082923
v 0.042135 0.036973 0.063806
v 0.044670 0.036294 0.048904
v 0.044670 0.036294 0.037283
v 0.003074 0.045019 0.117465
v 0.009250 0.038842 0.111929
v 0.017203 0.030889 0.100140
v 0.025019 0.023073 0.082923
v 0.030783 0.017310 0.063806
v 0.032638 0.015454 0.048904
v 0.032638 0.015454 0.037283
v 0.000978 0.043808 0.117465
v 0.003238 0.035372 0.111929
v 0.006149 0.024507 0.100140
v 0.009010 0.013831 0.082923
v 0.011120 0.005957 0.063806
v 0.011799 0.003423 0.048904
v 0.011799 0.003423 0.037283
v -0.001443 0.043808 0.117465
v -0.003704 0.035372 0.111929
v -0.006615 0.024507 0.100140
v -0.009475 0.013831 0.082923
v -0.011585 0.005957 0.063806
v -0.012264 0.003423 0.048904
v -0.012264 0.003423 0.037283
v -0.003539 0.045019 0.117465
v -0.009715 0.038842 0.111929
v -0.017669 0.030889 0.100140
v -0.025484 0.023073 0.082923
v -0.031248 0.017310 0.063806
v -0.033104 0.015454 0.048904
v -0.033104 0.015454 0.037283
v -0.004750 0.047115 0.117465
v -0.013186 0.044854 0.111929
v -0.024051 0.041943 0.100140
v -0.034727 0.039082 0.082923
v -0.042601 0.036973 0.063806
v -0.045135 0.036293 0.048904
v -0.045135 0.036293 0.037283
v -0.004750 0.049535 0.117465
v -0.013186 0.051796 0.111929
v -0.024051 0.054707 0.100140
v -0.034727 0.057568 0.082923
v -0.042601 0.059678 0.063806
v -0.045135 0.060357 0.048904
v -0.045135 0.060357 0.037283
v -0.003539 0.051632 0.117465
v -0.009715 0.057808 0.111929
v -0.017669 0.065761 0.100140
v -0.025484 0.073577 0.082923
v -0.031248 0.079341 0.063806
v -0.033104 0.081196 0.048904
v -0.033104 0.081196 0.037283
v -0.001443 0.052842 0.117465
v -0.003704 0.061279 0.111929
v -0.006615 0.072143 0.100140
v -0.009476 0.082820 0.082923
v -0.011585 0.090693 0.063806
v -0.012264 0.093228 0.048904
v -0.012264 0.093228 0.037283
v 0.011799 0.093228 -0.038339
v 0.032638 0.081196 -0.038339
v 0.044670 0.060357 -0.038339
v 0.044670 0.036294 -0.038339
v 0.032638 0.015454 -0.038339
v 0.011799 0.003423 -0.038339
v -0.012264 0.003423 -0.038339
v -0.033104 0.015454 -0.038339
v -0.045135 0.036293 -0.038339
v -0.045135 0.060357 -0.038339
v -0.033104 0.081196 -0.038339
v -0.012264 0.093228 -0.038339
v 0.012941 0.096593 -0.122776
v 0.012136 0.093589 -0.022776
v 0.035355 0.083652 -0.122776
v 0.033156 0.081453 -0.022776
v 0.048296 0.061237 -0.122776
v 0.045292 0.060432 -0.022776
v 0.048296 0.035355 -0.122776
v 0.045292 0.036160 -0.022776
v 0.035355 0.012941 -0.122776
v 0.033156 0.015140 -0.022776
v 0.012941 0.000000 -0.122776
v 0.012136 0.003004 -0.022776
v -0.012941 0.000000 -0.122776
v -0.012136 0.003004 -0.022776
v -0.035355 0.012941 -0.122776
v -0.033156 0.015140 -0.022776
v -0.048296 0.035355 -0.122776
v -0.045292 0.036160 -0.022776
v -0.048296 0.061237 -0.122776
v -0.045292 0.060432 -0.022776
v -0.035355 0.083652 -0.122776
v -0.033156 0.081453 -0.022776
v -0.012941 0.096593 -0.122776
v -0.012136 0.093589 -0.022776
v 0.035355 0.083652 -0.022776
v 0.012941 0.096593 -0.022776
v 0.048296 0.061237 -0.022776
v 0.048296 0.035355 -0.022776
v 0.035355 0.012941 -0.022776
v 0.012941 0.000000 -0.022776
v -0.012941 0.000000 -0.022776
v -0.035355 0.012941 -0.022776
v -0.048296 0.035355 -0.022776
v -0.048296 0.061237 -0.022776
v -0.035355 0.083652 -0.022776
v -0.012941 0.096593 -0.022776
v 0.033156 0.081453 -0.116005
v 0.012136 0.093589 -0.116005
v 0.045292 0.060432 -0.116005
v 0.045292 0.036160 -0.116005
v 0.033156 0.015140 -0.116005
v 0.012136 0.003004 -0.116005
v -0.012136 0.003004 -0.116005
v -0.033156 0.015140 -0.116005
v -0.045292 0.036160 -0.116005
v -0.045292 0.060432 -0.116005
v -0.033156 0.081453 -0.116005
v -0.012136 0.093589 -0.116005
v 0.012941 0.096593 -0.115631
v 0.035355 0.083652 -0.115631
v 0.048296 0.061237 -0.115631
v 0.048296 0.035355 -0.115631
v 0.035355 0.012941 -0.115631
v 0.012941 0.000000 -0.115631
v -0.012941 0.000000 -0.115631
v -0.035355 0.012941 -0.115631
v -0.048296 0.035355 -0.115631
v -0.048296 0.061237 -0.115631
v -0.035355 0.083652 -0.115631
v -0.012941 0.096593 -0.115631
v 0.013955 0.100377 -0.123056
v 0.038126 0.086422 -0.123056
v 0.038126 0.086422 -0.115351
v 0.052081 0.062251 -0.123056
v 0.052081 0.062251 -0.115351
v 0.052081 0.034341 -0.123056
v 0.052081 0.034341 -0.115351
v 0.038126 0.010170 -0.123056
v 0.038126 0.010170 -0.115351
v 0.013955 -0.003785 -0.123056
v 0.013955 -0.003785 -0.115351
v -0.013955 -0.003785 -0.123056
v -0.013955 -0.003785 -0.115351
v -0.038126 0.010170 -0.123056
v -0.038126 0.010170 -0.115351
v -0.052081 0.034341 -0.123056
v -0.052081 0.034341 -0.115351
v -0.052081 0.062251 -0.123056
v -0.052081 0.062251 -0.115351
v -0.038126 0.086422 -0.123056
v -0.038126 0.086422 -0.115351
v -0.013955 0.100377 -0.123056
v -0.013955 0.100377 -0.115351
v 0.013955 0.100377 -0.115351
v 0.035355 0.083652 0.022776
v 0.012941 0.096593 0.022776
v 0.048296 0.061237 0.022776
v 0.048296 0.035355 0.022776
v 0.035355 0.012941 0.022776
v 0.012941 -0.000000 0.022776
v -0.012941 0.000000 0.022776
v -0.035355 0.012941 0.022776
v -0.048296 0.035355 0.022776
v -0.048296 0.061237 0.022776
v -0.035355 0.083652 0.022776
v -0.012941 0.096593 0.022776
v 0.033156 0.081453 0.022776
v 0.012136 0.093589 0.022776
v 0.045292 0.060432 0.022776
v 0.045292 0.036160 0.022776
v 0.033156 0.015140 0.022776
v 0.012136 0.003004 0.022776
v -0.012136 0.003004 0.022776
v -0.033156 0.015140 0.022776
v -0.045292 0.036160 0.022776
v -0.045292 0.060432 0.022776
v -0.033156 0.081453 0.022776
v -0.012136 0.093589 0.022776
vn 0.1629 0.2821 0.9455
vn 0.2821 0.1629 0.9455
vn 0.3257 -0.0000 0.9455
vn 0.2821 -0.1629 0.9455
vn 0.1629 -0.2821 0.9455
vn 0.0000 -0.3257 0.9455
vn -0.1629 -0.2821 0.9455
vn -0.2821 -0.1629 0.9455
vn -0.3257 -0.0000 0.9455
vn -0.2821 0.1629 0.9455
vn -0.0000 0.0000 1.0000
vn -0.1629 0.2821 0.9455
vn 0.0000 0.3257 0.9455
vn -0.0000 1.0000 0.0000
vn -0.0000 0.9858 0.1677
vn -0.0000 0.9246 0.3808
vn -0.0000 0.8499 0.5270
vn -0.0000 0.7353 0.6777
vn 0.0000 0.5486 0.8361
vn -0.5000 0.8660 0.0000
vn -0.4929 0.8538 0.1677
vn -0.4623 0.8008 0.3808
vn -0.4249 0.7360 0.5270
vn -0.3677 0.6368 0.6777
vn -0.2743 0.4751 0.8361
vn -0.8660 0.5000 0.0000
vn -0.8538 0.4929 0.1677
vn -0.8008 0.4623 0.3808
vn -0.7360 0.4249 0.5270
vn -0.6368 0.3677 0.6777
vn -0.4751 0.2743 0.8361
vn -1.0000 -0.0000 0.0000
vn -0.9858 -0.0000 0.1677
vn -0.9246 -0.0000 0.3808
vn -0.8499 -0.0000 0.5270
vn -0.7353 -0.0000 0.6777
vn -0.5486 -0.0000 0.8361
vn -0.8660 -0.5000 0.0000
vn -0.8538 -0.4929 0.1677
vn -0.8008 -0.4623 0.3808
vn -0.7360 -0.4249 0.5270
vn -0.6368 -0.3677 0.6777
vn -0.4751 -0.2743 0.8361
vn -0.5000 -0.8660 -0.0000
vn -0.4929 -0.8538 0.1677
vn -0.4623 -0.8008 0.3808
vn -0.4249 -0.7360 0.5270
vn -0.3677 -0.6368 0.6777
vn -0.2743 -0.4751 0.8361
vn 0.0000 -1.0000 -0.0000
vn 0.0000 -0.9858 0.1677
vn 0.0000 -0.9246 0.3808
vn 0.0000 -0.8499 0.5270
vn 0.0000 -0.7353 0.6777
vn 0.0000 -0.5486 0.8361
vn 0.5000 -0.8660 -0.0000
vn 0.4929 -0.8538 0.1677
vn 0.4623 -0.8008 0.3808
vn 0.4249 -0.7360 0.5270
vn 0.3677 -0.6368 0.6777
vn 0.2743 -0.4751 0.8361
vn 0.8660 -0.5000 -0.0000
vn 0.8538 -0.4929 0.1677
vn 0.8008 -0.4623 0.3808
vn 0.7360 -0.4249 0.5270
vn 0.6368 -0.3677 0.6777
vn 0.4751 -0.2743 0.8361
vn 1.0000 0.0000 0.0000
vn 0.9858 0.0000 0.1677
vn 0.9246 -0.0000 0.3808
vn 0.8499 0.0000 0.5270
vn 0.7353 0.0000 0.6777
vn 0.5486 0.0000 0.8361
vn 0.8660 0.5000 0.0000
vn 0.8538 0.4929 0.1677
vn 0.8008 0.4623 0.3808
vn 0.7360 0.4249 0.5270
vn 0.6368 0.3677 0.6777
vn 0.4751 0.2743 0.8361
vn 0.5000 0.8660 0.0000
vn 0.4929 0.8538 0.1677
vn 0.4623 0.8008 0.3808
vn 0.4249 0.7360 0.5270
vn 0.3677 0.6368 0.6777
vn 0.2743 0.4751 0.8361
vn 0.0000 0.0000 -1.0000
vn -0.0639 -0.0369 -0.9973
vn 0.0639 0.0369 0.9973
vn -0.0369 -0.0639 0.9973
vn 0.0738 0.0000 -0.9973
vn 0.0738 0.0000 0.9973
vn -0.0639 0.0369 -0.9973
vn -0.0639 -0.0369 0.9973
vn 0.0639 -0.0369 0.9973
vn 0.0369 -0.0639 -0.9973
vn -0.0738 0.0000 0.9973
vn 0.0000 0.0738 -0.9973
vn 0.0369 -0.0639 0.9973
vn 0.0369 0.0639 -0.9973
vn 0.0000 -0.0738 -0.9973
vn 0.0369 0.0639 0.9973
vn -0.0369 0.0639 -0.9973
vn 0.0000 0.0738 0.9973
vn 0.0639 -0.0369 -0.9973
vn -0.0369 0.0639 0.9973
vn -0.0738 0.0000 -0.9973
vn 0.0000 -0.0738 0.9973
vn 0.0639 0.0369 -0.9973
vn -0.0369 -0.0639 -0.9973
vn -0.0639 0.0369 0.9973
usemtl Material.002
s off
f 31//1 2//1 4//1 32//1
f 32//2 4//2 6//2 39//2
f 39//3 6//3 8//3 46//3
f 46//4 8//4 10//4 53//4
f 53//5 10//5 12//5 60//5
f 60//6 12//6 14//6 67//6
f 67//7 14//7 16//7 74//7
f 74//8 16//8 18//8 81//8
f 81//9 18//9 20//9 88//9
f 88//10 20//10 22//10 95//10
f 4//11 2//11 24//11 22//11 20//11 18//11 16//11 14//11 12//11 10//11 8//11 6//11
f 95//12 22//12 24//12 102//12
f 102//13 24//13 2//13 31//13
f 23//14 1//14 109//14 120//14
f 23//14 108//14 25//14 1//14
f 108//14 107//14 26//14 25//14
f 107//15 106//15 27//15 26//15
f 106//16 105//16 28//16 27//16
f 105//17 104//17 29//17 28//17
f 104//18 103//18 30//18 29//18
f 103//19 102//19 31//19 30//19
f 21//20 101//20 108//20 23//20
f 101//20 100//20 107//20 108//20
f 100//21 99//21 106//21 107//21
f 99//22 98//22 105//22 106//22
f 98//23 97//23 104//23 105//23
f 97//24 96//24 103//24 104//24
f 96//25 95//25 102//25 103//25
f 19//26 94//26 101//26 21//26
f 94//26 93//26 100//26 101//26
f 93//27 92//27 99//27 100//27
f 92//28 91//28 98//28 99//28
f 91//29 90//29 97//29 98//29
f 90//30 89//30 96//30 97//30
f 89//31 88//31 95//31 96//31
f 17//32 87//32 94//32 19//32
f 87//32 86//32 93//32 94//32
f 86//33 85//33 92//33 93//33
f 85//34 84//34 91//34 92//34
f 84//35 83//35 90//35 91//35
f 83//36 82//36 89//36 90//36
f 82//37 81//37 88//37 89//37
f 15//38 80//38 87//38 17//38
f 80//38 79//38 86//38 87//38
f 79//39 78//39 85//39 86//39
f 78//40 77//40 84//40 85//40
f 77//41 76//41 83//41 84//41
f 76//42 75//42 82//42 83//42
f 75//43 74//43 81//43 82//43
f 13//44 73//44 80//44 15//44
f 73//44 72//44 79//44 80//44
f 72//45 71//45 78//45 79//45
f 71//46 70//46 77//46 78//46
f 70//47 69//47 76//47 77//47
f 69//48 68//48 75//48 76//48
f 68//49 67//49 74//49 75//49
f 11//50 66//50 73//50 13//50
f 66//50 65//50 72//50 73//50
f 65//51 64//51 71//51 72//51
f 64//52 63//52 70//52 71//52
f 63//53 62//53 69//53 70//53
f 62//54 61//54 68//54 69//54
f 61//55 60//55 67//55 68//55
f 9//56 59//56 66//56 11//56
f 59//56 58//56 65//56 66//56
f 58//57 57//57 64//57 65//57
f 57//58 56//58 63//58 64//58
f 56//59 55//59 62//59 63//59
f 55//60 54//60 61//60 62//60
f 54//61 53//61 60//61 61//61
f 7//62 52//62 59//62 9//62
f 52//62 51//62 58//62 59//62
f 51//63 50//63 57//63 58//63
f 50//64 49//64 56//64 57//64
f 49//65 48//65 55//65 56//65
f 48//66 47//66 54//66 55//66
f 47//67 46//67 53//67 54//67
f 5//68 45//68 52//68 7//68
f 45//68 44//68 51//68 52//68
f 44//69 43//69 50//69 51//69
f 43//70 42//70 49//70 50//70
f 42//71 41//71 48//71 49//71
f 41//72 40//72 47//72 48//72
f 40//73 39//73 46//73 47//73
f 3//74 38//74 45//74 5//74
f 38//74 37//74 44//74 45//74
f 37//75 36//75 43//75 44//75
f 36//76 35//76 42//76 43//76
f 35//77 34//77 41//77 42//77
f 34//78 33//78 40//78 41//78
f 33//79 32//79 39//79 40//79
f 1//80 25//80 38//80 3//80
f 25//80 26//80 37//80 38//80
f 26//81 27//81 36//81 37//81
f 27//82 28//82 35//82 36//82
f 28//83 29//83 34//83 35//83
f 29//84 30//84 33//84 34//84
f 30//85 31//85 32//85 33//85
f 109//86 110//86 111//86 112//86 113//86 114//86 115//86 116//86 117//86 118//86 119//86 120//86
f 1//80 3//80 110//80 109//80
f 5//68 7//68 112//68 111//68
f 21//20 23//20 120//20 119//20
f 3//74 5//74 111//74 110//74
f 19//26 21//26 119//26 118//26
f 17//32 19//32 118//32 117//32
f 15//38 17//38 117//38 116//38
f 13//44 15//44 116//44 115//44
f 11//50 13//50 115//50 114//50
f 9//56 11//56 114//56 113//56
f 7//62 9//62 113//62 112//62
usemtl Material.001
f 169//80 146//80 145//80 170//80
f 170//74 145//74 147//74 171//74
f 171//68 147//68 148//68 172//68
f 172//62 148//62 149//62 173//62
f 173//56 149//56 150//56 174//56
f 174//50 150//50 151//50 175//50
f 175//44 151//44 152//44 176//44
f 176//38 152//38 153//38 177//38
f 177//32 153//32 154//32 178//32
f 178//26 154//26 155//26 179//26
f 136//80 134//80 163//80 164//80
f 179//20 155//20 156//20 180//20
f 180//14 156//14 146//14 169//14
f 121//86 123//86 125//86 127//86 129//86 131//86 133//86 135//86 137//86 139//86 141//86 143//86
f 145//80 146//80 206//80 205//80
f 126//32 128//32 220//32 219//32
f 153//38 152//38 212//38 213//38
f 148//68 147//68 207//68 208//68
f 140//62 142//62 227//62 226//62
f 124//38 126//38 219//38 217//38
f 138//68 140//68 226//68 225//68
f 155//26 154//26 214//26 215//26
f 150//56 149//56 209//56 210//56
f 122//44 124//44 217//44 218//44
f 136//74 138//74 225//74 224//74
f 146//14 156//14 216//14 206//14
f 157//11 158//11 168//11 167//11 166//11 165//11 164//11 163//11 162//11 161//11 160//11 159//11
f 130//26 128//26 160//26 161//26
f 144//56 142//56 167//56 168//56
f 124//44 122//44 158//44 157//44
f 138//74 136//74 164//74 165//74
f 132//20 130//20 161//20 162//20
f 122//50 144//50 168//50 158//50
f 126//38 124//38 157//38 159//38
f 140//68 138//68 165//68 166//68
f 134//14 132//14 162//14 163//14
f 128//32 126//32 159//32 160//32
f 142//62 140//62 166//62 167//62
f 125//87 123//87 182//87 184//87
f 176//88 177//88 197//88 195//88
f 169//89 170//89 183//89 204//89
f 139//90 137//90 196//90 198//90
f 177//91 178//91 199//91 197//91
f 129//92 127//92 186//92 188//92
f 170//93 171//93 185//93 183//93
f 178//94 179//94 201//94 199//94
f 143//95 141//95 200//95 202//95
f 171//96 172//96 187//96 185//96
f 133//97 131//97 190//97 192//97
f 179//98 180//98 203//98 201//98
f 202//14 203//14 204//14 181//14
f 200//20 201//20 203//20 202//20
f 198//26 199//26 201//26 200//26
f 196//32 197//32 199//32 198//32
f 194//38 195//38 197//38 196//38
f 192//44 193//44 195//44 194//44
f 190//50 191//50 193//50 192//50
f 188//56 189//56 191//56 190//56
f 186//62 187//62 189//62 188//62
f 184//68 185//68 187//68 186//68
f 182//74 183//74 185//74 184//74
f 181//80 204//80 183//80 182//80
f 135//99 133//99 192//99 194//99
f 121//100 143//100 202//100 181//100
f 175//101 176//101 195//101 193//101
f 131//102 129//102 188//102 190//102
f 174//103 175//103 193//103 191//103
f 141//104 139//104 198//104 200//104
f 173//105 174//105 191//105 189//105
f 127//106 125//106 184//106 186//106
f 180//107 169//107 204//107 203//107
f 137//108 135//108 194//108 196//108
f 123//109 121//109 181//109 182//109
f 172//110 173//110 189//110 187//110
f 218//11 217//11 205//11 206//11
f 217//11 219//11 207//11 205//11
f 219//11 220//11 208//11 207//11
f 220//11 221//11 209//11 208//11
f 221//11 222//11 210//11 209//11
f 222//11 223//11 211//11 210//11
f 223//11 224//11 212//11 211//11
f 224//11 225//11 213//11 212//11
f 225//11 226//11 214//11 213//11
f 226//11 227//11 215//11 214//11
f 227//11 228//11 216//11 215//11
f 228//11 218//11 206//11 216//11
f 142//56 144//56 228//56 227//56
f 128//26 130//26 221//26 220//26
f 151//50 150//50 210//50 211//50
f 156//20 155//20 215//20 216//20
f 144//50 122//50 218//50 228//50
f 130//20 132//20 222//20 221//20
f 149//62 148//62 208//62 209//62
f 154//32 153//32 213//32 214//32
f 132//14 134//14 223//14 222//14
f 134//80 136//80 224//80 223//80
f 147//74 145//74 205//74 207//74
f 152//44 151//44 211//44 212//44
