# Blender v2.79 (sub 0) OBJ File: 'Low Poly Scene.blend'
# www.blender.org
mtllib LPPine.mtl
o Pine.001_Icosphere.010
v -0.040994 0.337549 -0.034938
v 0.320457 0.281801 0.322502
v -0.129101 0.360354 0.383374
v -0.445948 0.256023 0.042005
v -0.194769 0.294303 -0.450385
v 0.374027 0.294480 -0.227677
v 0.075336 0.853943 0.165844
v -0.184197 0.815628 0.056912
v -0.161616 0.767929 -0.130342
v 0.055268 0.818119 -0.187068
v 0.198952 0.889232 0.011605
v -0.040994 1.191393 -0.034938
v 0.029990 1.467651 0.002269
v 0.081009 1.259272 0.174540
v 0.149304 1.209104 0.029378
v 0.042128 1.196022 -0.142299
v -0.065114 1.215095 -0.076770
v -0.061362 1.227507 0.116671
v 0.309401 0.814831 0.148321
v 0.244182 0.856941 -0.214146
v -0.116103 0.791009 -0.306287
v -0.305178 0.825448 0.042419
v -0.088161 0.793881 0.285833
v 0.034478 0.885431 -0.032184
v 0.032398 1.684674 0.026828
v 0.134468 1.521038 -0.056868
v -0.005661 1.489678 -0.068538
v -0.057717 1.523163 0.055414
v 0.000378 1.485275 0.113639
v 0.138955 1.494104 0.053565
v 0.052182 1.179096 -0.188744
v -0.193055 1.212009 -0.009529
v -0.133020 1.194972 0.163455
v 0.164790 1.203301 0.234520
v 0.261838 1.164334 0.025827
v -0.001424 1.230874 0.021634
v 0.046943 1.839158 0.012277
v 0.140102 1.721798 0.038324
v 0.087665 1.710838 -0.049401
v -0.025546 1.697883 -0.049547
v -0.024386 1.707605 0.023764
v 0.066094 1.714087 0.087870
v 0.211251 1.474039 -0.067790
v 0.017863 1.492657 -0.131249
v -0.150277 1.486072 -0.040729
v -0.065178 1.460923 0.173112
v 0.154181 1.474452 0.158795
v 0.032678 1.520832 -0.012403
v 0.000000 0.499840 0.121607
v 0.000000 0.000000 0.121607
v -0.085989 0.499840 0.085989
v -0.085989 0.000000 0.085989
v -0.121607 0.499840 -0.000000
v -0.121607 0.000000 -0.000000
v -0.085989 0.499840 -0.085989
v -0.085989 0.000000 -0.085989
v 0.000000 0.499840 -0.121607
v 0.000000 0.000000 -0.121607
v 0.085989 0.499840 -0.085989
v 0.085989 0.000000 -0.085989
v 0.121607 0.499840 -0.000000
v 0.121607 0.000000 -0.000000
v 0.085989 0.499840 0.085989
v 0.085989 0.000000 0.085989
vn -0.1697 -0.9853 0.0180
vn -0.1190 -0.9923 -0.0345
vn 0.2143 -0.9718 0.0981
vn 0.2022 -0.9790 0.0271
vn -0.0469 -0.9916 0.1206
vn 0.9647 0.2439 0.0996
vn 0.1833 0.3319 0.9253
vn -0.7400 0.3305 0.5858
vn -0.8497 0.3348 -0.4074
vn 0.3497 0.2822 -0.8934
vn 0.6457 0.4463 0.6196
vn -0.3966 0.5028 0.7681
vn -0.8828 0.4186 -0.2131
vn -0.3279 0.5446 -0.7719
vn 0.6449 0.4410 -0.6242
vn 0.5829 0.5544 0.5940
vn -0.4058 0.3600 0.8401
vn -0.9319 0.3085 -0.1909
vn -0.3046 0.2911 -0.9069
vn 0.6551 0.4239 -0.6255
vn 0.8661 0.4269 0.2599
vn 0.7950 0.3123 -0.5201
vn -0.4208 0.4115 -0.8085
vn -0.9354 0.3536 -0.0046
vn -0.4189 0.5155 0.7476
vn 0.8653 0.4294 0.2587
vn 0.7051 0.5219 -0.4800
vn -0.3965 0.4734 -0.7866
vn -0.8536 0.5207 -0.0169
vn -0.4188 0.3524 0.8369
vn 0.9318 0.3397 -0.1282
vn 0.1827 0.3068 -0.9341
vn -0.8075 0.3529 -0.4727
vn -0.6927 0.2989 0.6564
vn 0.3198 0.1088 0.9412
vn -0.1999 -0.9767 -0.0775
vn 0.1056 -0.9566 0.2715
vn 0.2147 -0.9537 0.2106
vn -0.0516 -0.9542 -0.2946
vn 0.1196 -0.9654 -0.2318
vn -0.0245 0.4431 -0.8962
vn -0.8139 0.3756 -0.4433
vn -0.4966 0.4123 0.7638
vn 0.3589 0.3235 0.8755
vn 0.8644 0.4954 0.0857
vn -0.0030 0.3605 -0.9328
vn -0.7830 0.4336 -0.4460
vn -0.5245 0.3724 0.7656
vn 0.3111 0.5219 0.7943
vn 0.9373 0.3454 0.0462
vn -0.5591 0.2067 -0.8030
vn -0.8866 0.3149 0.3387
vn -0.2308 0.2666 0.9358
vn 0.8852 0.2999 0.3556
vn 0.7153 0.0949 -0.6924
vn 0.0542 -0.9663 0.2516
vn 0.1193 -0.9832 -0.1382
vn 0.0710 -0.9807 -0.1824
vn -0.2439 -0.9543 0.1727
vn -0.2455 -0.9671 0.0664
vn 0.7306 0.4700 -0.4954
vn -0.0470 0.4206 -0.9060
vn -0.8798 0.4728 -0.0488
vn -0.5553 0.3663 0.7467
vn 0.4400 0.5129 0.7371
vn 0.7501 0.4305 -0.5021
vn -0.0402 0.3622 -0.9312
vn -0.8614 0.5051 -0.0533
vn -0.5234 0.5030 0.6878
vn 0.4787 0.4063 0.7783
vn 0.3235 0.2399 -0.9153
vn -0.4675 0.2399 -0.8509
vn -0.8472 0.3706 0.3807
vn 0.0438 0.2983 0.9535
vn 0.9554 0.1714 0.2403
vn -0.1730 -0.9533 0.2476
vn 0.1510 -0.9659 0.2102
vn 0.2124 -0.9571 -0.1971
vn -0.2723 -0.9599 -0.0668
vn 0.0402 -0.9569 -0.2878
vn 0.3827 0.0000 -0.9239
vn 0.9239 0.0000 -0.3827
vn 0.9239 0.0000 0.3827
vn 0.3827 0.0000 0.9239
vn -0.3827 0.0000 0.9239
vn -0.9239 0.0000 0.3827
vn 0.0000 1.0000 0.0000
vn -0.9239 0.0000 -0.3827
vn -0.3827 0.0000 -0.9239
vn 0.0000 -1.0000 0.0000
usemtl Dark_leaves
s off
f 1//1 2//1 3//1
f 2//2 1//2 6//2
f 1//3 3//3 4//3
f 1//4 4//4 5//4
f 1//5 5//5 6//5
f 2//6 6//6 11//6
f 3//7 2//7 7//7
f 4//8 3//8 8//8
f 5//9 4//9 9//9
f 6//10 5//10 10//10
f 2//11 11//11 7//11
f 3//12 7//12 8//12
f 4//13 8//13 9//13
f 5//14 9//14 10//14
f 6//15 10//15 11//15
f 7//16 11//16 12//16
f 8//17 7//17 12//17
f 9//18 8//18 12//18
f 10//19 9//19 12//19
f 11//20 10//20 12//20
f 14//21 15//21 13//21
f 15//22 16//22 13//22
f 16//23 17//23 13//23
f 17//24 18//24 13//24
f 18//25 14//25 13//25
f 19//26 15//26 14//26
f 20//27 16//27 15//27
f 21//28 17//28 16//28
f 22//29 18//29 17//29
f 23//30 14//30 18//30
f 19//31 20//31 15//31
f 20//32 21//32 16//32
f 21//33 22//33 17//33
f 22//34 23//34 18//34
f 23//35 19//35 14//35
f 24//36 20//36 19//36
f 24//37 21//37 20//37
f 24//38 22//38 21//38
f 23//39 24//39 19//39
f 24//40 23//40 22//40
f 26//41 27//41 25//41
f 27//42 28//42 25//42
f 28//43 29//43 25//43
f 29//44 30//44 25//44
f 30//45 26//45 25//45
f 31//46 27//46 26//46
f 32//47 28//47 27//47
f 33//48 29//48 28//48
f 34//49 30//49 29//49
f 35//50 26//50 30//50
f 31//51 32//51 27//51
f 32//52 33//52 28//52
f 33//53 34//53 29//53
f 34//54 35//54 30//54
f 35//55 31//55 26//55
f 36//56 32//56 31//56
f 36//57 33//57 32//57
f 36//58 34//58 33//58
f 35//59 36//59 31//59
f 36//60 35//60 34//60
f 38//61 39//61 37//61
f 39//62 40//62 37//62
f 40//63 41//63 37//63
f 41//64 42//64 37//64
f 42//65 38//65 37//65
f 43//66 39//66 38//66
f 44//67 40//67 39//67
f 45//68 41//68 40//68
f 46//69 42//69 41//69
f 47//70 38//70 42//70
f 43//71 44//71 39//71
f 44//72 45//72 40//72
f 45//73 46//73 41//73
f 46//74 47//74 42//74
f 47//75 43//75 38//75
f 48//76 44//76 43//76
f 48//77 45//77 44//77
f 48//78 46//78 45//78
f 47//79 48//79 43//79
f 48//80 47//80 46//80
usemtl Wood
f 49//81 50//81 52//81 51//81
f 51//82 52//82 54//82 53//82
f 53//83 54//83 56//83 55//83
f 55//84 56//84 58//84 57//84
f 57//85 58//85 60//85 59//85
f 59//86 60//86 62//86 61//86
f 52//87 50//87 64//87 62//87 60//87 58//87 56//87 54//87
f 61//88 62//88 64//88 63//88
f 63//89 64//89 50//89 49//89
f 49//90 51//90 53//90 55//90 57//90 59//90 61//90 63//90
